<svg xmlns="http://www.w3.org/2000/svg" xml:space="preserve" style="enable-background:new 0 0 163.7 18.9" viewBox="0 0 163.7 18.9"><path d="M7.6 17.1c-1.4 0-2.7-.3-3.9-.9-1.1-.6-2.1-1.5-2.7-2.6-.7-1.1-1-2.4-1-3.7 0-1.4.3-2.6 1-3.7s1.6-2 2.7-2.6c1.2-.6 2.5-1 3.9-1 1.2 0 2.3.2 3.3.6 1 .4 1.8 1 2.5 1.8l-2.1 2c-.9-1.1-2.1-1.6-3.5-1.6-.9 0-1.7.2-2.4.6-.6.4-1.2.9-1.6 1.6-.3.6-.5 1.4-.5 2.3 0 .9.2 1.6.6 2.3.4.7.9 1.2 1.6 1.6.7.4 1.5.6 2.3.6 1.4 0 2.6-.6 3.5-1.7l2.1 1.9c-.7.8-1.5 1.4-2.5 1.9-1 .4-2.1.6-3.3.6zm12.5-.1c-1.1 0-2.2-.2-3.1-.7-.9-.5-1.6-1.1-2.1-2-.5-.8-.8-1.8-.8-2.9 0-1.1.3-2 .8-2.9.5-.8 1.2-1.5 2.1-2 .9-.3 1.9-.5 3.1-.5 1.1 0 2.1.2 3 .7.9.5 1.6 1.1 2.1 2 .5.8.8 1.8.8 2.9 0 1.1-.3 2-.8 2.9-.5.8-1.2 1.5-2.1 2-.9.3-1.9.5-3 .5zm0-2.5c.8 0 1.5-.3 2-.8s.8-1.3.8-2.2c0-.9-.3-1.6-.8-2.2-.5-.5-1.2-.8-2-.8s-1.5.3-2 .8-.8 1.3-.8 2.2c0 .9.3 1.6.8 2.2.5.5 1.2.8 2 .8zM39 2v14.8h-3v-1.2c-.8.9-1.9 1.4-3.4 1.4-1 0-1.9-.2-2.8-.7-.8-.5-1.5-1.1-1.9-1.9s-.7-1.8-.7-2.9c0-1.1.2-2.1.7-2.9s1.1-1.5 1.9-1.9c.9-.5 1.9-.7 2.9-.7 1.4 0 2.4.4 3.2 1.3V2H39zm-5.8 12.5c.8 0 1.4-.3 2-.8.5-.5.8-1.3.8-2.2 0-.9-.3-1.6-.8-2.2-.5-.5-1.2-.8-2-.8s-1.5.3-2 .8-.8 1.3-.8 2.2c0 .9.3 1.6.8 2.2.6.5 1.2.8 2 .8zm14.1 0c.6 0 1.1-.1 1.5-.2.4-.2.8-.4 1.2-.8l1.7 1.8c-1 1.2-2.5 1.7-4.4 1.7-1.3 0-2.3-.2-3.3-.7-.9-.5-1.7-1.1-2.2-2-.5-.8-.8-1.8-.8-2.9 0-1.1.2-2 .7-2.8.5-.9 1.2-1.5 2.1-2 .9-.5 1.9-.7 3-.7 1 0 2 .2 2.8.7.8.4 1.5 1.1 2 1.9.5.8.8 1.8.8 2.9l-8 1.5c.2.5.6.9 1.1 1.2.5.3 1.1.4 1.8.4zm-.4-6.2c-.8 0-1.4.3-1.9.8s-.8 1.2-.8 2.1l5.2-1c-.1-.6-.4-1-.9-1.3-.4-.4-1-.6-1.6-.6zm14.4 3.6c-.5 0-.9-.1-1.3-.3-.4-.2-.8-.4-1.2-.8-.3-.2-.6-.4-.8-.5-.2-.1-.4-.2-.6-.2-.4 0-.7.1-.9.4-.2.3-.3.7-.4 1.1h-1.9c0-1.2.3-2.2.8-2.8.5-.7 1.3-1 2.2-1 .5 0 .9.1 1.2.3.3.2.8.4 1.2.8.3.2.6.4.8.5.2.1.4.2.6.2.4 0 .7-.1.9-.4.2-.3.3-.7.4-1.1h2c0 1.2-.3 2.2-.9 2.8-.5.6-1.2 1-2.1 1zm9.9 5.2c-1.1 0-2.2-.1-3.2-.4-1-.3-1.9-.7-2.5-1.2l1.1-2.4c.6.4 1.3.8 2.1 1.1.8.3 1.7.4 2.5.4.9 0 1.6-.1 2-.4.4-.3.7-.6.7-1.1 0-.3-.1-.6-.4-.8-.3-.2-.6-.4-1-.5-.4-.1-.9-.3-1.6-.4-1.1-.3-1.9-.5-2.6-.8-.7-.3-1.3-.7-1.8-1.2-.5-.6-.7-1.3-.7-2.2 0-.8.2-1.5.7-2.2.4-.7 1.1-1.2 2-1.6.9-.4 2-.6 3.3-.6.9 0 1.8.1 2.6.3.9.2 1.6.5 2.2.9l-1 2.5c-1.3-.7-2.6-1.1-3.9-1.1-.9 0-1.6.1-2 .4-.4.2-.7.6-.7 1 0 .5.2.8.7 1.1.5.2 1.3.5 2.3.7 1.1.3 1.9.5 2.6.8.7.3 1.3.7 1.7 1.2.5.5.7 1.3.7 2.2 0 .8-.2 1.5-.7 2.2-.4.7-1.1 1.2-2 1.6-.7.3-1.8.5-3.1.5zm13.1-.1c-1.1 0-2.2-.2-3.1-.7-.9-.5-1.6-1.1-2.1-2-.5-.8-.8-1.8-.8-2.9 0-1.1.3-2 .8-2.9.5-.8 1.2-1.5 2.1-2 .9-.3 2-.5 3.1-.5s2.1.2 3 .7c.9.5 1.6 1.1 2.1 2 .5.8.8 1.8.8 2.9 0 1.1-.3 2-.8 2.9-.5.8-1.2 1.5-2.1 2-.9.3-1.9.5-3 .5zm0-2.5c.8 0 1.5-.3 2-.8s.8-1.3.8-2.2c0-.9-.3-1.6-.8-2.2-.5-.5-1.2-.8-2-.8s-1.5.3-2 .8-.8 1.3-.8 2.2c0 .9.3 1.6.8 2.2.5.5 1.2.8 2 .8zM96.1 17c-1.2 0-2.2-.3-2.8-1-.7-.7-1-1.6-1-2.8V2h3.1v11.1c0 .5.1.8.3 1.1.2.2.6.4 1 .4.2 0 .3 0 .5-.1.2 0 .3-.1.4-.1l.1 2.4c-.5.2-1 .2-1.6.2zm14-10.9v10.8h-3v-1.3c-.4.5-.9.8-1.5 1.1-.6.2-1.2.4-1.9.4-1.4 0-2.5-.4-3.4-1.2-.8-.8-1.2-2-1.2-3.6V6.1h3.1v5.6c0 1.7.7 2.6 2.2 2.6.7 0 1.3-.2 1.8-.7.5-.5.7-1.2.7-2.2V6.1h3.2zm9.4 10.3c-.3.2-.7.4-1.1.5-.4.1-.9.2-1.4.2-1.3 0-2.3-.3-3-1-.7-.7-1-1.6-1-2.9V3.7h3.1v2.6h2.7v2.4h-2.7v4.4c0 .5.1.8.3 1.1.2.2.6.4 1 .4.5 0 .9-.1 1.3-.4l.8 2.2zm1.8-10.3h3.1v10.8h-3.1V6.1zm1.5-1.5c-.6 0-1-.2-1.4-.5-.4-.3-.5-.7-.5-1.2s.2-.9.5-1.2c.4-.3.8-.5 1.4-.5.6 0 1 .2 1.4.5s.5.7.5 1.2-.2 1-.5 1.3c-.3.3-.8.4-1.4.4zm9.6 12.4c-1.1 0-2.2-.2-3.1-.7-.9-.5-1.6-1.1-2.1-2-.5-.8-.8-1.8-.8-2.9 0-1.1.3-2 .8-2.9.5-.8 1.2-1.5 2.1-2 .9-.5 1.9-.7 3.1-.7s2.1.2 3 .7c.9.5 1.6 1.1 2.1 2 .5.8.8 1.8.8 2.9 0 1.1-.3 2-.8 2.9-.5.8-1.2 1.5-2.1 2-.9.5-1.9.7-3 .7zm0-2.5c.8 0 1.5-.3 2-.8s.8-1.3.8-2.2c0-.9-.3-1.6-.8-2.2-.5-.5-1.2-.8-2-.8s-1.5.3-2 .8-.8 1.3-.8 2.2c0 .9.3 1.6.8 2.2.5.5 1.2.8 2 .8zM146.9 6c1.3 0 2.4.4 3.2 1.2.8.8 1.2 2 1.2 3.6V17h-3.1v-5.7c0-.9-.2-1.5-.6-1.9-.4-.4-.9-.6-1.6-.6-.8 0-1.4.2-1.9.7-.5.5-.7 1.2-.7 2.2V17h-3.1V6.1h3v1.3c.4-.5.9-.8 1.5-1 .7-.3 1.4-.4 2.1-.4z"/><circle cx="160.6" cy="14.8" r="3.1" style="fill:#ed675f"/><path d="M69.8 0h3.4v18.9h-3.4z"/></svg>