<svg xmlns="http://www.w3.org/2000/svg" xml:space="preserve" x="0" y="0" style="enable-background:new 0 0 500 500" version="1.1" viewBox="0 0 500 500">
  <style>
    .light{fill:#fff}
    @media (prefers-color-scheme: dark) {
        .dark {fill:#fff}
        .light {fill:#000}
    }
  </style>
  <path class="dark" d="M20 20v460h262.9v-.7C393.1 470.3 480 371.1 480 250c0-121.1-86.9-220.3-197.1-229.3V20H20z"/>
  <g class="light">
    <path d="M143.8 448.8v-85.7h37.8c8.1 0 15.1 1.2 20.8 3.7 5.9 2.4 10.4 6 13.5 10.5 3.1 4.6 4.7 10 4.7 16.3s-1.6 11.7-4.7 16.3c-3.2 4.5-7.6 8-13.5 10.4-.4.2-.8.3-1.2.5l21 28h-18.4l-18.7-25c-1.2.1-2.4.1-3.6.1h-20.7v25h-17zm53.9-42.6c-3.8 3-9.4 4.5-16.9 4.5h-19.9v-34.1h19.9c7.5 0 13.1 1.5 16.9 4.4 3.8 2.9 5.8 7.1 5.8 12.6 0 5.4-1.9 9.6-5.8 12.6zM50 448.8v-85.7h37.8c8.1 0 15.1 1.2 20.9 3.7 5.9 2.4 10.3 6 13.5 10.5 3.1 4.6 4.7 10 4.7 16.3s-1.6 11.7-4.7 16.3c-3.2 4.6-7.6 8.1-13.5 10.5-5.8 2.4-12.7 3.7-20.9 3.7H67v24.7H50zm53.9-42.6c-3.8 2.9-9.4 4.4-16.9 4.4H67v-34h20c7.5 0 13.2 1.5 16.9 4.4 3.8 2.9 5.8 7.1 5.8 12.6-.1 5.4-2 9.6-5.8 12.6z" style="fill-rule:evenodd;clip-rule:evenodd;"/>
    <path d="M282.7 450c-7.2 0-13.8-1.1-19.8-3.3-6-2.2-11.3-5.3-15.7-9.2-4.5-4-7.9-8.6-10.4-14-2.4-5.4-3.7-11.3-3.7-17.6s1.2-12.2 3.7-17.5c2.4-5.4 5.9-10 10.4-14s9.7-7.1 15.7-9.3c6-2.2 12.6-3.3 19.7-3.3 7.2 0 13.7 1.1 19.7 3.3 6 2.2 11.3 5.3 15.7 9.3 4.5 3.9 7.9 8.6 10.4 14 2.4 5.3 3.7 11.1 3.7 17.5s-1.2 12.2-3.7 17.6c-2.4 5.4-5.9 10-10.4 14-4.5 3.9-9.7 7-15.7 9.2-6 2.2-12.5 3.3-19.6 3.3zm-.1-14c4.6 0 8.9-.7 12.8-2.2 3.9-1.5 7.3-3.5 10.2-6.2 2.9-2.8 5.1-6 6.7-9.5 1.7-3.7 2.5-7.7 2.5-12.1s-.8-8.4-2.5-12c-1.6-3.7-3.8-6.9-6.7-9.5-2.9-2.8-6.3-4.9-10.2-6.4-3.9-1.5-8.2-2.2-12.8-2.2-4.6 0-8.9.7-12.8 2.2-3.8 1.5-7.2 3.6-10.2 6.4-2.9 2.7-5.1 5.9-6.8 9.5-1.6 3.6-2.4 7.6-2.4 12 0 4.3.8 8.3 2.4 12 1.7 3.7 3.9 6.9 6.8 9.7 2.9 2.7 6.3 4.8 10.2 6.2 3.9 1.4 8.1 2.1 12.8 2.1z"/>
  </g>
</svg>
