<svg width="124" height="26" viewBox="0 0 124 26" fill="none" xmlns="http://www.w3.org/2000/svg">
<path d="M121.204 5C120.797 5 120.423 4.9375 120.08 4.8125C119.738 4.6875 119.441 4.51389 119.188 4.29167C118.935 4.06482 118.739 3.80093 118.6 3.5C118.462 3.19444 118.392 2.86111 118.392 2.5C118.392 2.13889 118.462 1.80787 118.6 1.50694C118.739 1.20139 118.935 0.9375 119.188 0.715277C119.441 0.488426 119.738 0.3125 120.08 0.1875C120.423 0.0625001 120.794 0 121.196 0C121.603 0 121.975 0.0625001 122.312 0.1875C122.654 0.3125 122.951 0.488426 123.204 0.715277C123.457 0.9375 123.653 1.20139 123.792 1.50694C123.931 1.80787 124 2.13889 124 2.5C124 2.86111 123.931 3.19444 123.792 3.5C123.653 3.80556 123.457 4.06945 123.204 4.29167C122.951 4.51389 122.654 4.6875 122.312 4.8125C121.975 4.9375 121.605 5 121.204 5ZM121.196 4.20833C121.459 4.20833 121.702 4.16667 121.925 4.08333C122.148 4 122.341 3.88194 122.505 3.72917C122.669 3.57176 122.795 3.3912 122.884 3.1875C122.979 2.97917 123.026 2.75 123.026 2.5C123.026 2.25 122.979 2.02315 122.884 1.81944C122.795 1.61111 122.669 1.43056 122.505 1.27778C122.341 1.12037 122.148 1 121.925 0.916667C121.702 0.833334 121.459 0.791667 121.196 0.791667C120.933 0.791667 120.69 0.833334 120.467 0.916667C120.249 1 120.056 1.12037 119.887 1.27778C119.723 1.43056 119.595 1.61111 119.5 1.81944C119.411 2.02315 119.366 2.25 119.366 2.5C119.366 2.74537 119.411 2.97222 119.5 3.18056C119.595 3.38889 119.723 3.57176 119.887 3.72917C120.051 3.88194 120.244 4 120.467 4.08333C120.69 4.16667 120.933 4.20833 121.196 4.20833Z" fill="black"/>
<path fill-rule="evenodd" clip-rule="evenodd" d="M108 4.93056V0.0694443H110.142C110.603 0.0694443 110.997 0.138889 111.325 0.277778C111.657 0.416667 111.912 0.615741 112.091 0.875C112.269 1.13426 112.358 1.44213 112.358 1.79861C112.358 2.15509 112.269 2.46296 112.091 2.72222C111.912 2.98148 111.657 3.18056 111.325 3.31944C110.997 3.45833 110.603 3.52778 110.142 3.52778H108.967V4.93056H108ZM111.057 2.51389C110.844 2.68056 110.524 2.76389 110.097 2.76389H108.967V0.833333H110.097C110.524 0.833333 110.844 0.916667 111.057 1.08333C111.275 1.25 111.384 1.48843 111.384 1.79861C111.384 2.10417 111.275 2.34259 111.057 2.51389Z" fill="black"/>
<path fill-rule="evenodd" clip-rule="evenodd" d="M113.324 4.93056V0.0694443H115.466C115.927 0.0694443 116.321 0.138889 116.648 0.277778C116.981 0.416667 117.236 0.615741 117.415 0.875C117.593 1.13426 117.682 1.44213 117.682 1.79861C117.682 2.15509 117.593 2.46296 117.415 2.72222C117.236 2.97685 116.981 3.17361 116.648 3.3125C116.625 3.32203 116.602 3.33121 116.578 3.34007L117.772 4.93056H116.73L115.67 3.50933C115.603 3.51237 115.535 3.51389 115.466 3.51389H114.291V4.93056H113.324ZM116.381 2.51389C116.167 2.68519 115.848 2.77083 115.421 2.77083H114.291V0.833333H115.421C115.848 0.833333 116.167 0.916667 116.381 1.08333C116.599 1.25 116.708 1.48843 116.708 1.79861C116.708 2.10417 116.599 2.34259 116.381 2.51389Z" fill="black"/>
<path d="M0 26V0L13 11L26 0V26H0Z" fill="black"/>
<path d="M56 13C56 20.1797 50.1797 26 43 26C35.8203 26 30 20.1797 30 13C30 5.8203 35.8203 0 43 0C50.1797 0 56 5.8203 56 13Z" fill="black"/>
<path d="M59 0V26H73.8571V25.9621C80.0901 25.4515 85 19.8432 85 13C85 6.15677 80.0901 0.548515 73.8571 0.0378896V0H59Z" fill="black"/>
<path d="M98 0H83L108 26H122L98 0Z" fill="black"/>
</svg>
