<svg xmlns="http://www.w3.org/2000/svg" xml:space="preserve" style="enable-background:new 0 0 2219.5 292" viewBox="0 0 2219.5 292"><path d="M1802.7 130.5h-30.4v-41c0-1.5.3-2.5.9-3.1.6-.6 1.6-.8 3.1-.8h26.4c6.5 0 11.5 2.1 15.1 6.2 3.6 4.1 5.3 9.5 5.3 16.2 0 6.5-1.8 11.9-5.4 16.2-3.7 4.2-8.7 6.3-15 6.3zm136.5-2.6h-30.6V89.5c0-1.5.3-2.5 1-3.1.7-.6 1.7-.8 3.1-.8h26.5c6.7 0 11.8 1.8 15.3 5.4 3.6 3.6 5.3 8.7 5.3 15.2 0 6.4-1.8 11.6-5.5 15.6-3.6 4.1-8.7 6.1-15.1 6.1zm171.7 36.2c-.9 4.5-2.1 8.4-3.8 11.9-1.7 3.5-3.8 6.7-6.3 9.6-2.5 2.9-5.6 5.1-9.5 6.7-3.9 1.6-8.3 2.4-13.2 2.4-4.9 0-9.4-.8-13.2-2.4-3.9-1.6-7-3.8-9.5-6.7-2.5-2.9-4.6-6.1-6.3-9.6-1.7-3.5-3-7.5-3.8-11.9-.9-4.5-1.4-8.7-1.8-12.7-.3-4-.5-8.3-.5-12.8 0-5.8.2-11 .6-15.7.4-4.7 1.4-9.6 2.8-14.9 1.5-5.3 3.4-9.7 5.9-13.3 2.4-3.6 5.9-6.5 10.3-8.9 4.4-2.4 9.6-3.5 15.5-3.5 4.3 0 8.1.6 11.6 1.9 3.5 1.2 6.4 2.9 8.9 4.9 2.4 2 4.5 4.5 6.3 7.5 1.8 3 3.2 6.1 4.2 9.2 1 3.2 1.9 6.7 2.6 10.6.7 3.9 1.1 7.6 1.3 11 .2 3.4.3 7.1.3 11.1 0 4.6-.2 8.9-.5 12.8-.4 4.1-1 8.4-1.9 12.8zm32.6-53c-1.4-8.2-3.8-15.9-7.1-22.8-3.3-7-7.6-12.8-12.7-17.6-5.1-4.8-11.5-8.5-19.2-11.1-7.7-2.7-16.4-4-26.3-4s-18.7 1.3-26.4 4c-7.7 2.7-14.1 6.4-19.3 11.1-5.2 4.7-9.4 10.6-12.7 17.6-3.3 7-5.7 14.6-7.1 22.9-1.4 8.3-2.2 17.4-2.2 27.6 0 10 .7 19.1 2.2 27.3 1.4 8.2 3.8 15.8 7.1 22.8s7.5 12.9 12.6 17.6c5.1 4.8 11.5 8.5 19.3 11.2 7.7 2.6 16.5 4 26.4 4 9.9 0 18.7-1.3 26.4-4 7.7-2.7 14.1-6.4 19.3-11.2 5.1-4.8 9.4-10.7 12.7-17.6 3.3-7 5.7-14.6 7.1-22.8 1.4-8.2 2.1-17.3 2.1-27.3-.1-10.3-.8-19.5-2.2-27.7zm-144.3 94.7c-1.6-2.5-3.3-5.3-4.9-8.4-1.6-3.1-2.9-5.7-4-8-1-2.3-2.3-5.3-4-8.9-1.6-3.7-2.9-6.5-3.7-8.4-5.2-11-11.4-19-18.6-23.9 8.3-3.1 15.3-8.3 20.8-15.6 5.5-7.3 8.3-16.1 8.3-26.3 0-14.5-4.8-26.2-14.3-35s-21.6-13.2-36.3-13.2h-41.9c-3.3 0-6.3.3-8.8.8-2.6.5-5 1.5-7.3 2.9s-4.1 3.5-5.4 6.3c-1.2 2.8-1.9 6.3-1.9 10.4v131.9c0 7.2 5.2 10.8 15.7 10.8s15.7-3.6 15.7-10.8v-56.1h14.3c6.4 0 11.5 1.8 15.5 5.3 4 3.6 7.5 8.6 10.5 15 1.3 2.9 3.2 7.6 5.7 14s4.7 11.8 6.8 16.1c2 4.3 4.1 7.8 6.3 10.6 3 4 8.9 6 17.5 6 5.5 0 10-1.4 13.4-4.2 1.9-1.5 2.7-3.2 2.7-5.2.1-1.9-.7-3.9-2.1-6.1zM1841.9 72c-9.6-9.4-21.6-14-36-14h-42.2c-3.3 0-6.3.3-8.8.8-2.5.5-5 1.5-7.3 2.9s-4.1 3.5-5.4 6.3c-1.3 2.8-1.9 6.3-1.9 10.4v131.9c0 7.2 5.3 10.8 15.8 10.8 10.8 0 16.1-3.6 16.1-10.8v-52.1h33.7c14.6 0 26.6-4.7 36.1-14.1 9.5-9.4 14.2-21.4 14.2-36.1.1-14.7-4.7-26.7-14.3-36zm377.6 164.1c-.2 52.4-6.3 54.7-60.2 54.7h-426.7c-30.5 0-45.7-.8-53.2-10.9-3.3-2.7-7.1-9.2-12.6-19.5l-46.3-85.4c-14.4-26.5-15.3-30.6-1.3-56.8l50.4-92.9c3.9-7.1 6.9-11.7 9.5-14C1686.5.9 1701.7.1 1732.5.1h426.7c51.9 0 59.5 2.2 60.2 49.1h.1v186.9z" style="fill-rule:evenodd;clip-rule:evenodd;fill:#4189ca"/><path d="M1577.3 234.5c15.9 0 28.7 12.9 28.7 28.7s-12.9 28.7-28.7 28.7c-15.9 0-28.7-12.9-28.7-28.7s12.9-28.7 28.7-28.7zm-176.2-233h41.3c2.7-.1 5.7-.1 9.1-.1h.5c3.4 0 6.4 0 9 .1h3.7c0-.1-.1-.1-.1-.2h39.9c3.5.2 5.7.2 5.7.2v.1c21.7.4 24 4 24 31.2v.5c0 29.9-2.7 31.2-31.3 31.2h-19.8v196c0 28.5-1.3 31.2-31.1 31.2h-.5c-29.8 0-31.1-2.7-31.1-31.2V133.8c-.1 0-.1.1-.2.1V64.5h-19.1c-28.6 0-31.3-1.3-31.3-31.2v-.5c.1-30 2.8-31.3 31.3-31.3zM985.8 164.7c.5 5.7 1.2 11.8 2.3 18.3 1.1 6.4 2.8 12.2 5 17.2s4.9 9.6 8.1 13.8c3.2 4.2 7.3 7.4 12.4 9.7 5 2.3 10.8 3.4 17.2 3.4 6.4 0 12.2-1.1 17.2-3.4s9.2-5.5 12.4-9.7c3.2-4.2 5.9-8.8 8.1-13.8 2.2-5 3.9-10.8 5-17.2 1.1-6.4 1.9-12.5 2.3-18.3.5-5.7.7-11.9.7-18.5 0-5.7-.1-11.1-.4-16-.3-4.9-.8-10.2-1.7-15.9-.9-5.7-2-10.8-3.3-15.3-1.4-4.5-3.2-9-5.5-13.3-2.3-4.3-5.1-7.9-8.2-10.9-3.2-2.9-7-5.3-11.5-7.1-4.5-1.8-9.6-2.7-15.1-2.7-7.7 0-14.5 1.7-20.2 5.1-5.7 3.4-10.2 7.7-13.4 12.8-3.2 5.1-5.7 11.5-7.6 19.2-1.9 7.6-3.1 14.8-3.7 21.5-.6 6.7-.8 14.2-.8 22.6.1 6.6.3 12.8.7 18.5zm-47-106.2c5.2-12.3 11.9-22.5 20-30.8S977.1 13 989.2 8.3c12.1-4.7 26-7 41.6-7 15.6 0 29.5 2.3 41.6 7 12.1 4.7 22.2 11.2 30.3 19.5 8.1 8.3 14.8 18.6 20.1 30.8 5.3 12.2 9 25.5 11.3 39.9s3.4 30.5 3.4 48.2c0 17.5-1.1 33.4-3.4 47.8-2.3 14.4-6 27.7-11.2 39.9-5.2 12.2-11.9 22.5-20 30.9-8.1 8.4-18.3 14.9-30.4 19.5-12.2 4.6-26.1 7-41.7 7-15.6 0-29.5-2.3-41.7-7-12.2-4.6-22.3-11.1-30.4-19.5-8.1-8.4-14.7-18.6-19.9-30.9-5.2-12.2-8.9-25.5-11.2-39.9-2.3-14.4-3.4-30.3-3.4-47.8 0-17.7 1.1-33.8 3.4-48.2 2.3-14.4 6-27.8 11.2-40zM698.7 23.9s.1 0 0 0C699.2 2.2 702.8 0 729.9 0h.5c29.9 0 31.2 2.7 31.2 31.3v78.4h47.3c0-.1-.1-.1-.1-.2h21.5V29.7c.2-3.5.2-5.7.2-5.7h.1c.4-21.8 4-24 31.1-24h.5c29.9 0 31.2 2.7 31.2 31.3v228.2c0 28.6-1.3 31.3-31.2 31.3h-.5c-29.9 0-31.2-2.7-31.2-31.3v-95.1h-68.9v95.1c0 28.6-1.3 31.3-31.2 31.3h-.5c-29.9 0-31.2-2.7-31.2-31.3V132.7c-.1 0-.1.1-.2.1V29.7c.3-3.6.2-5.8.2-5.8zM180.5 292.6h-.5c-30 0-31.3-2.7-31.3-31.4V150.3L134 179.7c-3.1 6.3-5.7 11.2-8.1 14.7-3 6.8-10.5 11.6-19.2 11.6h-.9c-8.7 0-16.2-4.8-19.2-11.6-2.4-3.6-4.9-8.4-8.1-14.7L63 148.6v112.6c0 28.7-1.3 31.4-31.3 31.4h-.5c-30 0-31.3-2.7-31.3-31.4V32C0 3.3 1.3.6 31.3.6h.5c13.1 0 20.8.5 25.2 3.5 5.4 2.2 9.2 9.1 15.4 21.7l33.9 67.9 33.9-67.9c5.1-10.3 8.6-16.8 12.7-20 4-4.5 11.8-5.2 27.1-5.2h.5c30 0 31.3 2.7 31.3 31.4v229.2c-.1 28.7-1.4 31.4-31.3 31.4zm1153-256.4c6.7 8.8 11.6 19.3 14.8 31.4-.4-1.3 1.2 8.4.3 13.5-.6 3.3-1.4 6.4-4.1 9.1-3.7 3.8-9.3 6.1-16.8 6.9-2.2.2-4.3.3-6.4.3-11.8 0-23.6-3.5-26.6-10-8.4-16.9-20.6-24.2-37.2-24.2 2.7 0-27.4-1.8-27.4 23 0 10.1 6.8 14.9 27.7 26 23 12.2 44.1 24.1 59.7 34.4h.2c28.6 17.8 33.8 42.2 33.8 58v4.5c0 2.6-.1 5.2-.4 7.7-.8 14.3-5.1 27-13 37.9-8.8 12.2-19.9 21.2-33.3 27.1-13.4 5.9-27.8 8.8-43.4 8.8-11.5 0-22.3-1.1-32.3-3.4-10-2.3-19.5-5.9-28.4-10.9-8.9-5-16.7-11.9-23.4-20.7-6.7-8.8-11.6-19.3-14.8-31.4.4 1.3-1.2-8.4-.3-13.5.6-3.3 1.4-6.4 4.1-9.1 3.7-3.8 9.3-6.1 16.8-6.9 2.2-.2 8.1-.3 10.2-.3 11.8 0 23.3 3.7 26.8 11.1 9.5 19.3 24.4 21.9 38.9 21.9.4 0 31.8 1.3 31.9-21.6.1-13-17.4-21.1-27-26.6-10.9-6.2-44.1-22.9-59.6-32.7h-.1c-30.4-17.9-35.9-43.1-35.9-59.2v-4.6c0-2.6.1-5.2.4-7.7.8-14.3 5.1-27 13-37.9 8.8-12.2 19.9-21.2 33.3-27.1 13.4-5.9 28.4-8.8 39.6-8.8 11 .1 50.5-2.5 78.9 35zm-943.7 94c-.3-5-.8-10.3-1.7-16-.9-5.7-2-10.9-3.3-15.4-1.4-4.6-3.2-9-5.5-13.4s-5.1-8-8.3-10.9c-3.2-2.9-7.1-5.3-11.6-7.1-4.5-1.8-9.6-2.7-15.2-2.7-7.8 0-14.6 1.7-20.3 5.1-5.8 3.4-10.2 7.7-13.4 12.9-3.2 5.2-5.7 11.6-7.7 19.3-1.9 7.7-3.2 14.9-3.7 21.6-.6 6.7-.8 14.3-.8 22.7 0 6.6.2 12.8.7 18.6.5 5.8 1.2 11.9 2.4 18.4 1.1 6.5 2.8 12.2 5 17.3 2.2 5.1 5 9.7 8.2 13.9 3.2 4.2 7.4 7.4 12.4 9.7 5.1 2.3 10.8 3.4 17.3 3.4s12.2-1.1 17.3-3.4c5.1-2.3 9.2-5.5 12.4-9.7 3.2-4.2 6-8.8 8.2-13.9 2.2-5.1 3.9-10.8 5-17.3s1.9-12.6 2.4-18.4c.5-5.8.7-12 .7-18.6-.1-5.8-.3-11.1-.5-16.1zm47 104.8c-5.2 12.3-11.9 22.6-20.1 31-8.2 8.4-18.4 14.9-30.6 19.6-12.2 4.7-26.2 7-41.9 7s-29.7-2.3-41.9-7c-12.3-4.7-22.4-11.2-30.6-19.6-8.1-8.4-14.8-18.7-20-31-5.2-12.3-9-25.6-11.3-40.1-2.3-14.4-3.4-30.5-3.4-48.1 0-17.8 1.1-34 3.4-48.5s6-27.9 11.3-40.3c5.2-12.3 11.9-22.6 20.1-31s18.4-14.8 30.6-19.5c12.2-4.7 26.1-7 41.8-7 15.7 0 29.6 2.3 41.8 7 12.2 4.7 22.3 11.2 30.5 19.6 8.2 8.4 14.9 18.7 20.2 31 5.3 12.3 9.1 25.7 11.3 40.2 2.3 14.5 3.4 30.7 3.4 48.5 0 17.6-1.1 33.6-3.4 48.1-2.3 14.4-6 27.8-11.2 40.1zm166.5-104.8c-.3-5-.8-10.3-1.7-16-.9-5.7-2-10.9-3.3-15.4-1.4-4.6-3.2-9-5.5-13.4s-5.1-8-8.3-10.9c-3.2-2.9-7.1-5.3-11.6-7.1-4.6-1.8-9.6-2.7-15.2-2.7H537v162.9h20.7c6.5 0 12.2-1.1 17.3-3.4 5.1-2.3 9.2-5.5 12.4-9.7 3.2-4.2 6-8.8 8.2-13.9 2.2-5.1 3.9-10.8 5-17.3s1.9-12.6 2.3-18.4c.5-5.8.7-12 .7-18.6.1-5.8 0-11.1-.3-16.1zm58.3 64.7c-2.3 14.4-6 27.8-11.2 40.1-5.2 12.3-11.9 22.6-20.1 31-8.2 8.4-18.4 14.9-30.6 19.6-12.2 4.7-26.2 7-41.9 7H505.2c-30 0-31.3-2.7-31.3-31.4V32c0-28.7 1.3-31.4 31.3-31.4h52.6c15.7 0 29.6 2.3 41.8 7 12.2 4.7 22.3 11.2 30.5 19.6 8.2 8.4 14.9 18.7 20.2 31 5.3 12.3 9.1 25.7 11.3 40.2 2.3 14.5 3.4 30.7 3.4 48.5 0 17.5-1.2 33.5-3.4 48z" style="fill-rule:evenodd;clip-rule:evenodd;fill:#293034"/></svg>