<svg width="32" height="32" viewBox="0 0 32 32" fill="none" xmlns="http://www.w3.org/2000/svg">
<path d="M8.32532 1.95984C9.04573 0.74492 10.3535 0 11.7659 0H28C30.2091 0 32 1.79086 32 4V28C32 30.2091 30.2091 32 28 32H11.7659C10.3535 32 9.04573 31.2551 8.32532 30.0402L1.20974 18.0402C0.463881 16.7823 0.463881 15.2177 1.20974 13.9598L8.32532 1.95984Z" fill="#1ABC9C"/>
<path d="M18.5574 24C17.531 24 16.5474 23.8379 15.6066 23.5138C14.6658 23.175 13.9082 22.7403 13.334 22.2099L14.342 19.5138C14.8918 19.9853 15.5394 20.3757 16.2847 20.6851C17.0423 20.9797 17.8059 21.1271 18.5757 21.1271C19.1622 21.1271 19.6326 21.0608 19.9869 20.9282C20.3535 20.7808 20.6223 20.582 20.7933 20.3315C20.9644 20.081 21.0499 19.7937 21.0499 19.4696C21.0499 19.0571 20.9155 18.733 20.6467 18.4972C20.3779 18.2468 20.0236 18.0479 19.5837 17.9006C19.1438 17.7385 18.6551 17.5912 18.1175 17.4586C17.5921 17.3112 17.0606 17.1344 16.523 16.9282C15.9976 16.7219 15.515 16.4567 15.0751 16.1326C14.6352 15.8085 14.2748 15.3812 13.9938 14.8508C13.725 14.3204 13.5906 13.6427 13.5906 12.8177C13.5906 11.9337 13.7861 11.1308 14.1771 10.4088C14.5803 9.67219 15.179 9.09024 15.9732 8.66298C16.7796 8.22099 17.7876 8 18.9972 8C19.8036 8 20.5978 8.11786 21.3798 8.35359C22.1618 8.57458 22.8521 8.91344 23.4508 9.37016L22.5344 12.0884C21.9357 11.6759 21.337 11.3738 20.7383 11.1823C20.1396 10.9761 19.5532 10.8729 18.9789 10.8729C18.4046 10.8729 17.9342 10.954 17.5677 11.116C17.2011 11.2781 16.9384 11.4917 16.7796 11.7569C16.6207 12.0074 16.5413 12.302 16.5413 12.6409C16.5413 13.0387 16.6757 13.3628 16.9445 13.6133C17.2133 13.849 17.5677 14.0405 18.0075 14.1878C18.4474 14.3352 18.93 14.4825 19.4554 14.6298C19.993 14.7772 20.5245 14.9466 21.0499 15.1381C21.5875 15.3296 22.0763 15.5875 22.5161 15.9116C22.956 16.2357 23.3103 16.663 23.5791 17.1934C23.8601 17.7238 24.0007 18.3941 24.0007 19.2044C24.0007 20.0737 23.799 20.8692 23.3958 21.5912C22.9926 22.3131 22.3878 22.895 21.5814 23.337C20.7872 23.779 19.7792 24 18.5574 24Z" fill="#FDFDFE"/>
</svg>
